<?xml version="1.0" standalone="no"?>
<!DOCTYPE svg PUBLIC "-//W3C//DTD SVG 20010904//EN"
 "http://www.w3.org/TR/2001/REC-SVG-20010904/DTD/svg10.dtd">
<svg version="1.0" xmlns="http://www.w3.org/2000/svg"
 width="1179.000000pt" height="1153.000000pt" viewBox="0 0 1179.000000 1153.000000"
 preserveAspectRatio="xMidYMid meet">

<g transform="translate(0.000000,1153.000000) scale(0.100000,-0.100000)"
fill="#000000" stroke="none">
<path d="M0 5765 l0 -5765 5830 0 5830 0 3 5743 2 5742 3 -5742 2 -5743 60 0
60 0 0 5765 0 5765 -5895 0 -5895 0 0 -5765z m5945 3515 c464 -54 925 -245
1304 -538 118 -91 326 -296 424 -417 305 -377 492 -812 563 -1310 24 -165 24
-504 0 -675 -80 -582 -334 -1096 -741 -1506 -209 -210 -419 -363 -680 -495
-375 -189 -755 -279 -1180 -279 -563 0 -1074 167 -1540 502 -167 120 -426 374
-548 539 -270 363 -428 736 -504 1194 -23 139 -26 588 -4 730 89 593 335 1088
746 1500 207 207 421 363 683 495 317 159 611 239 1012 274 72 6 367 -3 465
-14z m-1410 -5845 c110 0 210 4 223 8 21 8 22 6 21 -45 -1 -29 -5 -66 -8 -83
-7 -30 -7 -30 -15 11 -11 63 -43 87 -111 86 -31 0 -63 -6 -70 -12 -12 -10 -15
-54 -15 -249 0 -130 4 -242 8 -248 4 -7 26 -17 47 -22 32 -7 14 -9 -85 -9 -80
0 -113 3 -93 8 64 15 63 9 63 269 0 130 -4 242 -9 250 -6 9 -28 13 -66 13 -71
-1 -103 -21 -127 -83 l-17 -44 0 51 c-1 28 2 66 5 83 6 27 10 30 28 24 11 -5
111 -8 221 -8z m-505 -210 c134 -282 153 -318 178 -331 43 -21 34 -24 -69 -23
-82 1 -97 3 -71 10 44 13 42 32 -23 169 l-55 115 -83 3 -83 3 -41 -98 c-55
-130 -58 -145 -36 -165 10 -8 32 -20 48 -26 24 -8 10 -10 -80 -11 -102 0 -108
1 -78 14 28 12 70 63 85 106 36 96 193 449 199 447 5 -2 54 -97 109 -213z
m1140 128 c23 -49 73 -155 112 -236 74 -159 106 -217 117 -217 4 0 16 -7 27
-15 17 -13 8 -14 -86 -14 -83 1 -98 3 -72 10 41 12 41 31 1 117 -17 37 -42 91
-55 120 l-24 52 -84 0 -84 0 -40 -97 c-54 -131 -57 -145 -35 -165 10 -8 32
-20 48 -26 24 -8 10 -10 -80 -11 -103 0 -108 1 -78 14 44 19 57 43 174 318 56
130 105 237 110 237 4 0 26 -39 49 -87z m1455 76 c22 -6 50 -20 62 -32 49 -44
38 -133 -23 -187 -22 -19 -32 -35 -28 -43 22 -35 124 -168 159 -206 22 -24 63
-54 90 -67 l50 -23 -69 0 -70 -1 -41 45 c-23 24 -73 89 -110 145 l-69 101 -41
-4 -40 -4 -3 -119 c-1 -65 2 -125 7 -132 4 -8 24 -18 42 -22 23 -5 -2 -8 -81
-8 -93 0 -108 2 -80 10 19 5 38 15 42 21 4 7 8 119 8 249 0 258 -2 266 -58
270 -15 1 16 5 68 8 52 3 106 7 120 8 14 1 43 -3 65 -9z m780 -13 c29 -13 69
-44 93 -71 174 -198 7 -502 -266 -483 -158 12 -262 125 -262 289 0 93 30 162
95 215 91 74 241 97 340 50z m560 4 c10 -9 15 -30 14 -69 l0 -56 -24 53 c-19
42 -32 56 -61 68 -78 32 -144 -10 -144 -91 0 -54 21 -80 107 -135 93 -60 132
-98 143 -142 37 -134 -130 -235 -277 -168 -38 17 -43 23 -43 53 0 19 -3 49 -6
66 -8 41 12 41 21 0 4 -17 26 -51 49 -75 39 -40 47 -44 92 -44 28 0 59 7 71
15 45 32 48 123 5 174 -9 12 -53 45 -97 74 -101 66 -128 104 -122 170 5 53 32
90 82 114 36 16 167 12 190 -7z m524 -233 c130 -271 145 -297 166 -297 7 0 17
-4 20 -10 4 -6 -31 -10 -97 -9 -84 1 -97 3 -69 11 31 8 33 12 28 41 -3 18 -28
80 -57 140 l-52 107 -82 0 -83 0 -41 -97 c-23 -54 -44 -109 -47 -123 -7 -30
12 -51 60 -68 24 -8 10 -10 -80 -11 -102 0 -108 1 -78 14 28 12 70 63 85 105
36 99 192 450 199 448 5 -2 62 -114 128 -251z m-5179 15 l185 -228 3 190 c1
105 0 201 -3 214 -3 14 -19 29 -38 37 -30 13 -27 14 58 13 50 0 80 -3 68 -5
-50 -10 -53 -28 -53 -305 0 -162 -4 -258 -10 -258 -9 0 -101 109 -335 393 -44
53 -83 97 -87 97 -10 0 -11 -364 -2 -410 5 -21 17 -38 38 -51 l31 -19 -85 0
-85 0 32 20 c18 11 35 30 38 42 3 13 4 122 3 243 l-3 220 -35 17 -35 18 65 0
65 0 185 -228z m2415 92 c61 -75 144 -178 185 -229 l75 -93 3 200 c3 217 -2
242 -50 251 -13 2 18 5 67 5 84 1 88 0 59 -12 -17 -8 -34 -21 -38 -31 -3 -9
-6 -129 -6 -265 0 -142 -4 -251 -9 -255 -8 -4 -235 260 -380 443 -19 23 -38
42 -43 42 -10 0 -9 -384 1 -420 4 -15 21 -32 41 -42 l35 -18 -90 0 -90 0 32
20 c18 11 35 30 38 42 3 13 4 122 3 243 l-3 220 -35 17 -35 18 65 0 66 0 109
-136z m-1165 -914 c0 -5 -25 -10 -55 -10 -54 0 -55 0 -55 -30 0 -29 2 -30 44
-30 61 0 68 -18 9 -22 -48 -3 -48 -3 -51 -40 -6 -74 -22 -36 -22 52 l0 90 65
0 c37 0 65 -4 65 -10z m148 -83 c2 -73 0 -87 -13 -87 -12 0 -15 16 -15 91 0
68 3 90 13 87 8 -3 13 -33 15 -91z m250 77 c23 -16 29 -34 11 -34 -6 0 -17 7
-25 15 -20 19 -58 19 -74 0 -15 -19 -7 -31 27 -39 65 -15 83 -27 83 -57 0 -33
-23 -49 -70 -49 -39 0 -70 16 -70 35 0 19 14 19 30 -1 18 -21 84 -15 88 8 2
12 -6 22 -25 29 -78 31 -93 40 -93 56 0 47 72 70 118 37z m182 -80 c0 -68 -3
-84 -15 -84 -12 0 -15 16 -15 83 0 46 3 87 6 90 17 16 24 -11 24 -89z m273 76
c46 -36 45 -111 -2 -147 -9 -7 -32 -13 -52 -13 -93 0 -125 122 -44 168 31 17
70 14 98 -8z m297 10 c0 -5 -13 -10 -30 -10 l-30 0 0 -80 c0 -103 -18 -105
-22 -2 l-3 77 -33 3 c-18 2 -30 8 -27 13 8 12 145 12 145 -1z m255 0 c4 -6
-15 -10 -49 -10 -56 0 -56 0 -56 -30 0 -29 1 -30 50 -30 28 0 50 -4 50 -10 0
-5 -22 -10 -50 -10 -49 0 -50 -1 -50 -30 0 -30 1 -30 55 -30 30 0 55 -4 55
-10 0 -6 -30 -10 -70 -10 l-70 0 0 83 c0 46 3 87 7 90 10 11 121 8 128 -3z
m256 0 c24 -14 27 -75 3 -88 -15 -8 -15 -12 0 -40 18 -36 19 -42 7 -42 -5 0
-19 16 -31 36 -18 28 -28 34 -49 32 -21 -2 -27 -9 -29 -35 -2 -18 -7 -33 -13
-33 -5 0 -9 41 -9 90 l0 90 51 0 c28 0 59 -5 70 -10z m276 -73 c18 -44 33 -83
33 -88 0 -19 -21 -8 -30 16 -8 21 -16 25 -53 25 -37 0 -46 -4 -55 -25 -11 -25
-39 -36 -29 -12 43 112 72 167 85 165 8 -2 30 -38 49 -81z m281 67 c14 -10 22
-26 22 -44 0 -37 -32 -60 -82 -60 -36 0 -38 -2 -38 -30 0 -16 -4 -30 -10 -30
-6 0 -10 37 -10 90 l0 90 48 0 c27 0 57 -7 70 -16z m170 -77 c2 -73 0 -87 -13
-87 -12 0 -15 16 -15 91 0 68 3 90 13 87 8 -3 13 -33 15 -91z m258 8 c19 -44
34 -83 34 -87 0 -18 -21 -6 -30 17 -8 21 -16 25 -53 25 -37 0 -46 -4 -55 -25
-12 -26 -38 -36 -29 -11 44 114 71 167 85 164 8 -2 30 -39 48 -83z"/>
<path d="M5500 9253 c-960 -53 -1817 -640 -2210 -1513 -148 -326 -216 -626
-227 -986 -13 -437 73 -830 266 -1222 47 -96 159 -283 210 -352 193 -261 445
-502 693 -664 416 -271 906 -416 1403 -416 581 0 1116 183 1583 542 127 97
351 318 444 439 197 255 356 559 446 859 122 404 139 881 46 1300 -163 729
-642 1358 -1307 1714 -407 218 -887 325 -1347 299z m1066 -1496 c149 -49 242
-127 290 -245 31 -74 33 -215 6 -314 -37 -133 -146 -278 -274 -363 -34 -22
-55 -42 -51 -49 39 -63 255 -370 368 -521 316 -421 533 -604 746 -630 45 -6
56 -11 55 -24 -3 -14 -29 -16 -246 -19 l-243 -2 -39 25 c-128 85 -387 414
-703 892 l-140 212 -45 -7 c-25 -4 -102 -7 -172 -7 l-128 0 0 -465 c0 -273 4
-479 10 -499 21 -74 70 -99 215 -110 62 -5 80 -9 80 -21 0 -13 -55 -15 -427
-18 -412 -2 -428 -2 -428 16 0 17 11 20 92 26 149 11 205 47 215 139 l5 43
-227 275 c-391 473 -483 584 -799 966 -169 205 -312 375 -317 379 -6 3 -9
-275 -7 -783 l3 -788 30 -60 c35 -70 85 -103 168 -114 41 -5 52 -10 52 -24 0
-17 -19 -18 -298 -18 -165 0 -301 2 -304 5 -3 3 -3 12 0 21 5 10 20 15 50 15
64 0 146 45 174 94 41 74 43 128 43 958 l0 796 -32 24 c-66 49 -108 69 -170
82 -44 9 -64 18 -66 29 -3 15 18 17 230 17 l234 0 71 -97 c39 -54 119 -156
178 -228 185 -226 383 -469 680 -835 158 -195 294 -362 302 -370 12 -13 13 90
11 720 -3 717 -3 736 -23 770 -30 51 -89 77 -196 86 -80 6 -89 9 -89 27 0 20
4 20 253 14 138 -3 290 -2 337 3 47 4 166 7 265 5 163 -2 188 -5 261 -28z"/>
<path d="M6110 7731 c-52 -11 -78 -28 -97 -64 -16 -29 -18 -70 -18 -452 l0
-420 90 -9 c108 -11 268 4 343 32 78 30 131 77 163 147 37 79 49 144 49 275 0
256 -94 423 -269 476 -55 17 -212 26 -261 15z"/>
<path d="M3867 3275 c-15 -36 -27 -70 -27 -75 0 -6 29 -10 65 -10 36 0 65 4
65 10 0 14 -63 140 -70 140 -4 0 -18 -29 -33 -65z"/>
<path d="M5067 3275 c-15 -36 -27 -70 -27 -75 0 -6 29 -10 65 -10 36 0 65 4
65 10 0 14 -63 140 -70 140 -4 0 -18 -29 -33 -65z"/>
<path d="M6502 3408 c-8 -8 -12 -49 -12 -120 l0 -108 55 0 c46 0 60 4 80 25
23 22 28 36 28 80 0 63 -5 79 -32 106 -22 22 -39 29 -68 29 -22 0 -44 -5 -51
-12z"/>
<path d="M7154 3401 c-76 -35 -114 -109 -114 -222 0 -92 29 -168 89 -229 110
-114 280 -85 344 58 29 67 28 188 -3 259 -55 128 -197 188 -316 134z"/>
<path d="M8303 3265 l-32 -75 75 0 74 0 -20 43 c-42 84 -55 107 -60 107 -4 0
-20 -34 -37 -75z"/>
<path d="M5316 2349 c-50 -39 -20 -119 44 -119 58 0 85 85 39 122 -28 23 -50
23 -83 -3z"/>
<path d="M6120 2336 c0 -36 0 -36 45 -36 33 0 47 5 52 16 11 28 -11 49 -56 52
-41 3 -41 3 -41 -32z"/>
<path d="M6428 2321 l-16 -41 34 0 c39 0 40 3 15 48 l-17 34 -16 -41z"/>
<path d="M6682 2333 c2 -27 8 -39 21 -41 32 -6 65 7 73 30 8 28 -18 48 -64 48
-32 0 -33 -1 -30 -37z"/>
<path d="M7137 2315 l-17 -35 35 0 c19 0 35 2 35 5 0 8 -30 65 -33 65 -2 0
-11 -16 -20 -35z"/>
</g>
</svg>
