<?xml version="1.0" standalone="no"?>
<!DOCTYPE svg PUBLIC "-//W3C//DTD SVG 20010904//EN"
 "http://www.w3.org/TR/2001/REC-SVG-20010904/DTD/svg10.dtd">
<svg version="1.0" xmlns="http://www.w3.org/2000/svg"
 width="2080.000000pt" height="2048.000000pt" viewBox="0 0 2080.000000 2048.000000"
 preserveAspectRatio="xMidYMid meet">

<g transform="translate(0.000000,2048.000000) scale(0.100000,-0.100000)"
fill="#1B3A28" stroke="none">
<rect x="0" y="0" width="20800" height="20480" fill="#FFFFFF" transform="scale(1,-1) translate(0,-20480)"/>
<path d="M0 10240 l0 -10240 10400 0 10400 0 0 10240 0 10240 -10400 0 -10400
0 0 -10240z m12102 3318 c59 -6 106 -14 104 -17 -2 -3 10 -7 27 -8 81 -3 215
-42 344 -99 17 -8 36 -14 42 -14 6 0 11 -4 11 -10 0 -5 6 -10 14 -10 14 0 86
-36 141 -71 17 -10 39 -23 50 -28 19 -9 58 -42 158 -139 47 -46 112 -129 112
-145 0 -4 5 -11 10 -15 19 -13 93 -168 110 -227 33 -120 37 -153 39 -320 1
-172 -5 -225 -46 -390 -31 -125 -64 -213 -115 -305 -8 -14 -21 -41 -30 -60
-23 -52 -67 -113 -181 -248 -107 -128 -169 -193 -212 -220 -14 -9 -47 -35 -75
-57 -27 -23 -92 -70 -142 -104 -51 -35 -92 -66 -90 -70 26 -55 45 -90 62 -109
11 -13 18 -24 16 -25 -8 -4 209 -340 253 -393 14 -18 26 -36 26 -42 0 -5 7
-16 16 -23 9 -7 20 -22 25 -34 5 -11 23 -38 39 -60 17 -22 47 -64 68 -94 20
-30 44 -64 52 -76 8 -12 31 -41 50 -65 19 -24 46 -61 60 -81 14 -21 52 -77 85
-125 33 -48 65 -95 70 -103 6 -9 36 -48 68 -88 31 -39 57 -74 57 -77 0 -3 21
-33 48 -67 26 -34 67 -90 92 -124 88 -121 162 -214 293 -365 37 -43 67 -81 67
-86 0 -15 359 -386 466 -480 38 -34 102 -87 142 -119 39 -31 72 -60 72 -66 0
-5 5 -9 11 -9 6 0 24 -10 39 -22 40 -32 146 -98 158 -98 5 0 12 -6 15 -12 9
-22 228 -126 284 -135 18 -3 33 -9 33 -14 0 -4 15 -10 33 -14 17 -3 64 -12
102 -20 39 -8 96 -17 128 -20 l58 -7 -3 -41 -3 -42 -520 -7 c-589 -7 -641 -4
-748 48 -105 50 -224 144 -320 253 -31 36 -90 101 -130 144 -39 42 -97 109
-127 148 -30 38 -74 92 -97 118 -24 26 -43 51 -43 56 0 4 -28 42 -63 84 -34
42 -92 116 -127 165 -36 48 -79 107 -97 130 -18 22 -53 73 -80 111 -26 39 -52
75 -58 80 -6 6 -24 30 -41 54 -32 48 -38 58 -104 155 -24 36 -48 66 -52 66 -4
0 -8 6 -8 13 0 6 -18 35 -40 62 -22 28 -40 56 -40 63 0 6 -4 12 -8 12 -5 0
-29 30 -53 67 -24 36 -52 78 -61 92 -10 14 -22 35 -27 46 -5 12 -16 27 -25 34
-9 7 -16 19 -16 25 0 6 -18 35 -40 64 -22 29 -40 55 -40 58 0 3 -20 32 -45 64
-25 32 -45 63 -45 68 0 6 -4 12 -8 14 -7 3 -36 47 -159 247 -18 30 -36 57 -40
60 -10 8 -73 100 -73 107 0 3 -16 26 -35 51 -19 25 -35 51 -35 58 0 6 -9 20
-20 30 -11 10 -20 26 -20 35 0 9 -12 28 -27 42 -31 28 -30 28 -178 1 -70 -12
-160 -16 -406 -17 l-316 -1 -7 -80 c-8 -113 -6 -1414 4 -1950 5 -324 11 -461
21 -490 19 -58 86 -154 117 -168 15 -6 38 -18 52 -27 36 -24 151 -59 228 -70
37 -5 132 -13 212 -16 159 -7 171 -12 169 -68 -1 -30 -1 -30 -9 -6 l-8 25 -1
-25 -1 -25 -1075 0 -1075 0 0 43 c0 37 3 42 23 42 12 1 47 3 77 5 30 3 89 7
130 9 153 9 298 38 340 70 8 6 36 22 62 35 26 13 50 32 53 42 4 11 10 19 15
19 5 0 25 34 44 75 26 56 36 95 41 152 l7 78 -59 77 c-32 42 -94 120 -138 173
-85 103 -113 138 -185 232 -48 61 -295 361 -334 403 -13 14 -28 35 -35 48 -10
19 -30 44 -120 147 -9 11 -30 37 -45 58 -16 20 -44 54 -64 75 -31 33 -138 170
-200 255 -13 18 -56 70 -97 117 -40 47 -106 126 -145 175 -40 50 -90 109 -111
132 -22 24 -39 46 -39 50 0 5 -17 27 -38 50 -20 22 -57 67 -82 98 -25 32 -67
84 -95 116 -27 32 -87 105 -132 161 -46 57 -133 166 -195 243 -62 77 -120 149
-130 160 -18 19 -98 118 -148 181 -86 109 -181 222 -200 239 -12 11 -37 43
-56 70 -32 47 -141 187 -181 230 -21 23 -90 105 -101 120 -32 44 -135 172
-278 345 -39 47 -91 113 -117 147 -26 34 -50 63 -55 65 -4 1 -23 24 -42 50
-18 27 -36 46 -38 43 -3 -2 -6 -91 -8 -197 -2 -106 -6 -276 -8 -378 -3 -123
-1 -189 6 -197 7 -9 8 -69 2 -196 -8 -188 -8 -487 2 -852 3 -145 1 -216 -6
-231 -8 -14 -10 -95 -5 -275 10 -409 11 -701 2 -706 -10 -6 -6 -452 4 -459 4
-2 6 -73 4 -157 -5 -260 24 -489 79 -612 28 -63 29 -65 61 -111 55 -79 201
-174 269 -174 11 0 34 -7 50 -15 15 -8 54 -16 85 -16 31 -1 70 -4 86 -8 28 -6
30 -9 30 -51 l0 -45 -145 3 c-80 1 -194 5 -255 8 -105 5 -506 7 -720 4 -55 -1
-105 -6 -112 -12 -7 -5 -47 -8 -90 -7 -43 1 -106 -1 -140 -6 l-63 -8 0 42 c0
22 0 44 0 48 -1 9 102 29 165 32 27 1 54 6 60 10 5 5 30 12 55 16 24 4 56 14
70 23 73 44 109 71 147 108 46 46 113 159 113 192 0 11 5 24 10 27 6 3 10 16
10 28 0 12 6 33 13 47 7 14 14 52 16 85 2 32 7 69 12 82 4 12 8 948 9 2081 l0
2058 -30 42 c-34 47 -128 124 -198 162 -87 48 -192 90 -223 90 -16 0 -28 4
-25 9 6 10 -99 31 -155 31 -48 0 -61 12 -57 51 l3 34 565 3 c311 1 575 0 588
-3 12 -3 22 -12 22 -20 0 -8 4 -15 9 -15 6 0 16 -11 23 -25 7 -13 41 -60 76
-105 34 -44 62 -85 62 -90 0 -6 3 -10 8 -10 4 0 18 -17 32 -38 14 -20 30 -41
37 -45 7 -4 13 -12 13 -17 0 -6 8 -18 18 -28 27 -29 65 -75 92 -113 33 -46 42
-58 63 -77 9 -9 17 -22 17 -29 0 -7 4 -13 8 -13 5 0 30 -30 57 -67 27 -38 54
-72 61 -78 6 -5 33 -39 60 -75 64 -84 135 -170 195 -236 10 -12 19 -26 19 -31
0 -5 15 -25 32 -44 44 -48 93 -107 120 -145 61 -84 151 -202 171 -224 13 -14
59 -70 101 -125 43 -55 86 -107 95 -115 9 -8 28 -33 44 -55 35 -51 102 -138
199 -256 93 -115 180 -222 216 -268 15 -19 54 -67 87 -106 33 -40 80 -98 105
-129 25 -32 60 -74 78 -95 17 -21 32 -42 32 -46 0 -4 28 -40 63 -79 35 -39 85
-99 113 -134 127 -164 157 -201 269 -340 225 -279 300 -373 320 -400 53 -71
109 -138 126 -150 11 -7 19 -18 19 -25 0 -6 9 -20 20 -32 11 -11 39 -44 61
-72 22 -29 44 -53 48 -53 4 0 8 174 9 388 1 213 2 389 3 392 1 3 1 9 0 13 -4
25 0 2580 4 2587 3 5 1 11 -5 15 -6 4 -10 67 -10 162 0 86 -4 170 -9 187 -6
17 -17 63 -26 101 -8 39 -20 72 -25 73 -6 2 -10 11 -10 21 0 26 -85 108 -134
130 -53 23 -172 51 -219 51 -18 0 -37 3 -41 8 -4 4 -78 14 -164 22 l-157 15
-3 43 -3 43 353 -6 c525 -8 974 -9 1053 -2 62 6 393 30 545 41 92 6 418 -3
532 -16z m7612 -12029 c21 -66 74 -154 131 -218 61 -67 236 -171 289 -171 9 0
16 -8 16 -17 0 -13 -17 -23 -61 -37 -66 -21 -154 -74 -218 -131 -67 -61 -171
-236 -171 -289 0 -9 -8 -16 -17 -16 -13 0 -23 17 -37 61 -21 66 -74 154 -131
218 -61 67 -236 171 -289 171 -9 0 -16 8 -16 18 0 12 17 22 61 36 66 21 154
74 218 131 67 61 171 236 171 289 0 9 8 16 18 16 12 0 22 -17 36 -61z"/>
<path d="M11425 13440 c-128 -16 -166 -23 -171 -31 -3 -5 -18 -9 -35 -9 -16 0
-29 -4 -29 -9 0 -5 -12 -13 -27 -19 -34 -12 -94 -68 -110 -102 -82 -180 -78
-111 -78 -1260 l0 -1015 35 -11 c61 -21 189 -29 435 -29 355 1 521 18 619 64
22 11 66 30 96 42 74 31 155 86 221 151 72 72 93 104 170 248 14 25 59 167 59
184 0 9 4 24 9 34 5 9 19 91 31 181 18 133 21 188 15 300 -5 121 -10 176 -30
364 -2 26 -9 56 -15 67 -6 11 -9 23 -8 27 3 15 -14 98 -23 109 -6 7 -9 16 -8
20 2 15 -13 55 -43 113 -15 31 -28 62 -28 69 0 13 -66 113 -105 161 -56 68
-173 166 -245 206 -19 11 -46 28 -59 37 -13 10 -27 15 -31 13 -5 -3 -11 -1
-15 5 -3 5 -17 10 -30 10 -13 0 -27 5 -30 10 -3 6 -16 10 -29 10 -12 0 -26 4
-32 9 -8 8 -85 23 -219 43 -88 13 -222 17 -290 8z"/>
</g>
</svg>
